<svg xmlns="http://www.w3.org/2000/svg" viewBox="0 0 950 679" fill="none">
  <path
    fill="currentColor"
    d="M468.8 2.47955e-05C474.667 2.47955e-05 478.933 2.93335 481.6 8.80001C484.8 14.1333 486.667 19.7333 487.2 25.6C487.2 38.4 484.533 50.1333 479.2 60.8C472.8 76.2667 463.733 89.8667 452 101.6C440.8 113.333 428 120 413.6 121.6C386.933 125.333 368.267 128 357.6 129.6C369.333 162.133 377.6 193.6 382.4 224C388.8 259.733 392.267 283.2 392.8 294.4C393.867 309.333 394.4 320.8 394.4 328.8C394.4 336.267 393.867 348 392.8 364C389.6 423.2 383.2 470.133 373.6 504.8C365.6 533.6 357.333 556.267 348.8 572.8C341.333 588.8 334.4 602.133 328 612.8C321.6 622.933 314.133 632 305.6 640L283.2 660.8L268 669.6C261.6 674.4 254.133 676.8 245.6 676.8C242.4 677.867 239.733 678.4 237.6 678.4C216.8 677.333 197.6 672.533 180 664C166.133 656.533 153.067 648 140.8 638.4C128.533 628.267 113.6 615.2 96 599.2L10.4 522.4C3.46667 516 9.53674e-07 507.2 9.53674e-07 496C9.53674e-07 480.533 6.4 462.933 19.2 443.2C32.5333 422.933 46.9333 409.6 62.4 403.2C66.6667 401.067 70.9333 400 75.2 400C80 400 84.2667 401.067 88 403.2L150.4 462.4L169.6 480C189.867 498.667 207.2 513.6 221.6 524.8C236.533 536 252.533 544.8 269.6 551.2C270.667 551.733 272.267 552 274.4 552C277.6 544.533 279.733 538.667 280.8 534.4C286.667 515.2 292.267 485.867 297.6 446.4C300.267 420.8 301.6 397.6 301.6 376.8C301.6 364.533 301.333 355.467 300.8 349.6L299.2 332.8C296 299.733 292.8 274.667 289.6 257.6C282.133 222.4 270.933 190.933 256 163.2C253.867 159.467 252.8 154.4 252.8 148L241.6 149.6C194.667 161.333 159.467 170.4 136 176.8C134.4 177.333 132.533 177.867 130.4 178.4C128.8 178.933 126.667 179.2 124 179.2C117.067 179.2 111.733 175.733 108 168.8C106.4 164 105.6 159.2 105.6 154.4C105.6 151.733 106.133 147.733 107.2 142.4C110.4 125.333 118.933 109.333 132.8 94.4C140.267 86.4 148.8 80.2667 158.4 76C192.533 66.4 218.133 58.9333 235.2 53.6C246.933 49.8667 254.667 47.7333 258.4 47.2C277.6 41.3333 293.067 37.0667 304.8 34.4C358.667 22.1333 412.267 10.9333 465.6 0.800014L468.8 2.47955e-05ZM897.081 512C899.748 515.2 905.881 522.133 915.481 532.8C925.615 543.467 933.615 554.4 939.481 565.6C945.881 576.267 949.081 586.667 949.081 596.8C949.081 609.6 944.281 621.6 934.681 632.8C922.948 647.2 908.548 654.4 891.481 654.4C884.015 654.4 875.748 653.333 866.681 651.2C857.615 649.067 851.748 647.733 849.081 647.2C806.948 638.667 757.881 634.4 701.881 634.4C658.681 634.4 612.815 636.533 564.281 640.8C560.015 641.333 553.881 641.867 545.881 642.4C537.881 642.933 530.681 643.2 524.281 643.2C505.081 643.2 489.615 640.267 477.881 634.4C466.681 628 461.081 616.533 461.081 600C461.081 590.4 462.948 580.267 466.681 569.6C470.415 558.4 476.015 545.067 483.481 529.6L490.681 512.8C498.681 493.067 507.481 478.133 517.081 468C526.681 457.333 540.281 452 557.881 452C572.281 452 583.481 456.8 591.481 466.4C600.015 475.467 604.281 486.933 604.281 500.8C604.281 510.4 601.881 520 597.081 529.6C630.681 527.467 668.815 526.4 711.481 526.4C736.548 526.4 755.481 526.667 768.281 527.2C719.215 465.333 682.681 418.667 658.681 387.2L603.481 317.6C594.948 306.933 587.748 298.667 581.881 292.8C562.148 269.867 547.215 250.4 537.081 234.4C526.948 217.867 521.881 201.067 521.881 184C521.881 168 527.481 155.2 538.681 145.6C550.415 135.467 564.015 128 579.481 123.2C595.481 117.867 615.481 112.8 639.481 108L673.081 100.8C715.215 90.1334 758.681 80.5334 803.481 72C807.215 71.4667 814.681 70.1333 825.881 68C844.015 63.2 860.015 60.8 873.881 60.8C891.481 60.8 904.815 65.6 913.881 75.2C923.481 85.3333 928.281 95.7333 928.281 106.4C928.281 116.533 925.081 126.667 918.681 136.8C912.815 146.933 903.215 160.267 889.881 176.8C873.881 196 863.748 210.133 859.481 219.2C852.548 234.133 845.081 246.667 837.081 256.8C829.615 266.933 821.081 272 811.481 272C804.548 272 797.615 269.333 790.681 264C783.215 258.133 779.481 250.133 779.481 240C779.481 232.533 781.081 224.8 784.281 216.8C788.015 208.267 791.481 200.533 794.681 193.6C798.415 186.667 800.815 182.4 801.881 180.8C774.681 185.6 734.415 194.933 681.081 208.8C674.681 210.933 661.615 214.4 641.881 219.2L737.881 329.6C820.015 422.933 873.081 483.733 897.081 512Z"
  />
</svg>

