<svg width="256" height="256" viewBox="0 0 256 256" xmlns="http://www.w3.org/2000/svg">
  <rect width="256" height="256" rx="48" fill="#24292E"/>
  <path fill="#FFFFFF" d="M128 30c-51 0-92.4 41.4-92.4 92.4 0 40.8 26.4 75.4 63 87.6 4.6 0.8 6.2-2 6.2-4.4 0-2.2-0.1-9.4-0.1-17-25.7 5.5-31 10.9-31-10.9-4.2-10.6-10.2-13.4-10.2-13.4-8.4-5.6 0.6-5.5 0.6-5.5 9.2 0.6 14 9.5 14 9.5 8.2 14 21.5 10 26.8 7.7 0.8-6 3.2-10 5.8-12.2-20.4-2.3-41.8-10.2-41.8-45.4 0-10 3.6-18.2 9.5-24.6-1-2.3-4.1-11.6 0.9-24.2 0 0 7.7-2.5 25.2 9.4 7.3-2 15.1-3 22.9-3 7.8 0 15.6 1 22.9 3 17.5-11.9 25.2-9.4 25.2-9.4 5 12.6 1.8 22 0.9 24.2 5.9 6.5 9.5 14.6 9.5 24.6 0 35.3-21.5 43.1-41.9 45.4 3.2 2.9 6.2 8.4 6.2 16.9 0 12.2-0.1 22.1-0.1 25.1 0 2.4 1.6 5.3 6.2 4.4 36.6-12.2 63-46.8 63-87.6 0-51-41.4-92.4-92.4-92.4z"/>
</svg>
